<mxfile host="app.diagrams.net" modified="2021-12-15T16:22:21.788Z" agent="5.0 (X11)" etag="3CAERU4ALtsEgkyV71tp" version="15.9.6" type="github" pages="6">
  <diagram id="fWEu4t-EW_wei3MwVTip" name="Class">
    <mxGraphModel dx="643" dy="364" grid="1" gridSize="10" guides="1" tooltips="1" connect="1" arrows="1" fold="1" page="1" pageScale="1" pageWidth="850" pageHeight="1100" math="0" shadow="0">
      <root>
        <mxCell id="0" />
        <mxCell id="1" parent="0" />
        <mxCell id="c93XpwLS8CslaClu3LFZ-1" value="CLoraComm" style="swimlane;fontStyle=1;align=center;verticalAlign=top;childLayout=stackLayout;horizontal=1;startSize=26;horizontalStack=0;resizeParent=1;resizeParentMax=0;resizeLast=0;collapsible=1;marginBottom=0;fillColor=#FAE5C7;strokeColor=#0F8B8D;fontColor=#143642;" parent="1" vertex="1">
          <mxGeometry x="310" y="160" width="200" height="220" as="geometry" />
        </mxCell>
        <mxCell id="c93XpwLS8CslaClu3LFZ-2" value="- mutComms : mutex&#xa;- mutSend : mutex&#xa;- condSend: cond_variable &#xa;- tx_msgs : vector&lt;string&gt;&#xa;&#xa;&#xa;" style="text;strokeColor=none;fillColor=none;align=left;verticalAlign=top;spacingLeft=4;spacingRight=4;overflow=hidden;rotatable=0;points=[[0,0.5],[1,0.5]];portConstraint=eastwest;fontColor=#143642;" parent="c93XpwLS8CslaClu3LFZ-1" vertex="1">
          <mxGeometry y="26" width="200" height="74" as="geometry" />
        </mxCell>
        <mxCell id="c93XpwLS8CslaClu3LFZ-3" value="" style="line;strokeWidth=1;fillColor=none;align=left;verticalAlign=middle;spacingTop=-1;spacingLeft=3;spacingRight=3;rotatable=0;labelPosition=right;points=[];portConstraint=eastwest;labelBackgroundColor=#DAD2D8;strokeColor=#0F8B8D;fontColor=#143642;" parent="c93XpwLS8CslaClu3LFZ-1" vertex="1">
          <mxGeometry y="100" width="200" height="8" as="geometry" />
        </mxCell>
        <mxCell id="c93XpwLS8CslaClu3LFZ-4" value="+ Communication(void)&#xa;+ ~Communication(void)&#xa;&#xa;+ push(IN msg : string) void&#xa;+ recv(void) void&#xa;- tSend(void*) void&#xa;&#xa;" style="text;strokeColor=none;fillColor=none;align=left;verticalAlign=top;spacingLeft=4;spacingRight=4;overflow=hidden;rotatable=0;points=[[0,0.5],[1,0.5]];portConstraint=eastwest;fontColor=#143642;" parent="c93XpwLS8CslaClu3LFZ-1" vertex="1">
          <mxGeometry y="108" width="200" height="112" as="geometry" />
        </mxCell>
      </root>
    </mxGraphModel>
  </diagram>
  <diagram id="54gmfY9uxFaU0y4bCuxx" name="Constructor">
    <mxGraphModel dx="1125" dy="637" grid="1" gridSize="10" guides="1" tooltips="1" connect="1" arrows="1" fold="1" page="1" pageScale="1" pageWidth="850" pageHeight="1100" math="0" shadow="0">
      <root>
        <mxCell id="YE7-BCoIbk_1VqUBDQ1K-0" />
        <mxCell id="YE7-BCoIbk_1VqUBDQ1K-1" parent="YE7-BCoIbk_1VqUBDQ1K-0" />
        <mxCell id="YE7-BCoIbk_1VqUBDQ1K-2" style="edgeStyle=orthogonalEdgeStyle;curved=0;rounded=1;sketch=0;orthogonalLoop=1;jettySize=auto;html=1;exitX=0.5;exitY=1;exitDx=0;exitDy=0;entryX=0.5;entryY=0;entryDx=0;entryDy=0;fontColor=#143642;strokeColor=#A8201A;fillColor=#FAE5C7;" edge="1" parent="YE7-BCoIbk_1VqUBDQ1K-1" source="YE7-BCoIbk_1VqUBDQ1K-3">
          <mxGeometry relative="1" as="geometry">
            <mxPoint x="516.5200000000001" y="160" as="targetPoint" />
          </mxGeometry>
        </mxCell>
        <mxCell id="YE7-BCoIbk_1VqUBDQ1K-3" value="LoraComm" style="ellipse;whiteSpace=wrap;html=1;fillColor=#FAE5C7;strokeColor=#0F8B8D;fontColor=#143642;fontStyle=1" vertex="1" parent="YE7-BCoIbk_1VqUBDQ1K-1">
          <mxGeometry x="453.52" y="70" width="125.5" height="50" as="geometry" />
        </mxCell>
        <mxCell id="YE7-BCoIbk_1VqUBDQ1K-4" value="end" style="ellipse;whiteSpace=wrap;html=1;fillColor=#FAE5C7;strokeColor=#0F8B8D;fontColor=#143642;fontStyle=1" vertex="1" parent="YE7-BCoIbk_1VqUBDQ1K-1">
          <mxGeometry x="492.26" y="570" width="48" height="30" as="geometry" />
        </mxCell>
        <mxCell id="YE7-BCoIbk_1VqUBDQ1K-5" style="edgeStyle=orthogonalEdgeStyle;rounded=1;orthogonalLoop=1;jettySize=auto;html=1;exitX=0.5;exitY=1;exitDx=0;exitDy=0;entryX=0.5;entryY=0;entryDx=0;entryDy=0;fontSize=11;strokeColor=#A8201A;" edge="1" parent="YE7-BCoIbk_1VqUBDQ1K-1" source="YE7-BCoIbk_1VqUBDQ1K-6" target="YE7-BCoIbk_1VqUBDQ1K-11">
          <mxGeometry relative="1" as="geometry" />
        </mxCell>
        <mxCell id="YE7-BCoIbk_1VqUBDQ1K-6" value="LoraBegin(433MHz)" style="shape=process;whiteSpace=wrap;html=1;backgroundOutline=1;rounded=0;sketch=0;fontColor=#143642;strokeColor=#0F8B8D;fillColor=#FAE5C7;fontStyle=1" vertex="1" parent="YE7-BCoIbk_1VqUBDQ1K-1">
          <mxGeometry x="435.94" y="250" width="160.64" height="30" as="geometry" />
        </mxCell>
        <mxCell id="YE7-BCoIbk_1VqUBDQ1K-7" style="edgeStyle=orthogonalEdgeStyle;rounded=1;orthogonalLoop=1;jettySize=auto;html=1;exitX=0.5;exitY=0;exitDx=0;exitDy=0;fontSize=11;strokeColor=#A8201A;startArrow=none;" edge="1" parent="YE7-BCoIbk_1VqUBDQ1K-1" source="YE7-BCoIbk_1VqUBDQ1K-16">
          <mxGeometry relative="1" as="geometry">
            <mxPoint x="525.43" y="216.9999999999999" as="targetPoint" />
            <Array as="points">
              <mxPoint x="690.43" y="217" />
            </Array>
          </mxGeometry>
        </mxCell>
        <mxCell id="YE7-BCoIbk_1VqUBDQ1K-8" style="edgeStyle=orthogonalEdgeStyle;rounded=1;orthogonalLoop=1;jettySize=auto;html=1;exitX=1;exitY=0.5;exitDx=0;exitDy=0;entryX=0.5;entryY=1;entryDx=0;entryDy=0;fontSize=11;strokeColor=#A8201A;" edge="1" parent="YE7-BCoIbk_1VqUBDQ1K-1" source="YE7-BCoIbk_1VqUBDQ1K-11" target="YE7-BCoIbk_1VqUBDQ1K-16">
          <mxGeometry relative="1" as="geometry" />
        </mxCell>
        <mxCell id="YE7-BCoIbk_1VqUBDQ1K-9" value="No" style="edgeLabel;html=1;align=center;verticalAlign=middle;resizable=0;points=[];fontSize=11;" vertex="1" connectable="0" parent="YE7-BCoIbk_1VqUBDQ1K-8">
          <mxGeometry x="-0.9005" y="-2" relative="1" as="geometry">
            <mxPoint as="offset" />
          </mxGeometry>
        </mxCell>
        <mxCell id="YE7-BCoIbk_1VqUBDQ1K-10" style="edgeStyle=orthogonalEdgeStyle;rounded=1;orthogonalLoop=1;jettySize=auto;html=1;exitX=0;exitY=0.5;exitDx=0;exitDy=0;entryX=0.5;entryY=0;entryDx=0;entryDy=0;strokeColor=#A8201A;" edge="1" parent="YE7-BCoIbk_1VqUBDQ1K-1" source="YE7-BCoIbk_1VqUBDQ1K-11" target="YE7-BCoIbk_1VqUBDQ1K-20">
          <mxGeometry relative="1" as="geometry" />
        </mxCell>
        <mxCell id="YE7-BCoIbk_1VqUBDQ1K-11" value="&lt;div&gt;Lora&lt;/div&gt;&lt;div&gt;Initialized ?&lt;/div&gt;" style="rhombus;whiteSpace=wrap;html=1;rounded=0;sketch=0;fontColor=#143642;strokeColor=#0F8B8D;fillColor=#FAE5C7;" vertex="1" parent="YE7-BCoIbk_1VqUBDQ1K-1">
          <mxGeometry x="466.1300000000001" y="297" width="98" height="90" as="geometry" />
        </mxCell>
        <mxCell id="YE7-BCoIbk_1VqUBDQ1K-12" style="edgeStyle=orthogonalEdgeStyle;rounded=1;orthogonalLoop=1;jettySize=auto;html=1;exitX=0.5;exitY=1;exitDx=0;exitDy=0;entryX=0.5;entryY=0;entryDx=0;entryDy=0;fontSize=11;strokeColor=#A8201A;startArrow=none;" edge="1" parent="YE7-BCoIbk_1VqUBDQ1K-1" source="YE7-BCoIbk_1VqUBDQ1K-15" target="YE7-BCoIbk_1VqUBDQ1K-6">
          <mxGeometry relative="1" as="geometry" />
        </mxCell>
        <mxCell id="YE7-BCoIbk_1VqUBDQ1K-13" style="edgeStyle=orthogonalEdgeStyle;rounded=1;orthogonalLoop=1;jettySize=auto;html=1;exitX=0.5;exitY=1;exitDx=0;exitDy=0;entryX=0.5;entryY=0;entryDx=0;entryDy=0;strokeColor=#A8201A;" edge="1" parent="YE7-BCoIbk_1VqUBDQ1K-1" source="YE7-BCoIbk_1VqUBDQ1K-14" target="YE7-BCoIbk_1VqUBDQ1K-15">
          <mxGeometry relative="1" as="geometry" />
        </mxCell>
        <mxCell id="YE7-BCoIbk_1VqUBDQ1K-14" value="LoraSetPins" style="shape=process;whiteSpace=wrap;html=1;backgroundOutline=1;rounded=0;sketch=0;fontColor=#143642;strokeColor=#0F8B8D;fillColor=#FAE5C7;fontStyle=1" vertex="1" parent="YE7-BCoIbk_1VqUBDQ1K-1">
          <mxGeometry x="441.02" y="160" width="150" height="30" as="geometry" />
        </mxCell>
        <mxCell id="YE7-BCoIbk_1VqUBDQ1K-15" value="" style="ellipse;whiteSpace=wrap;html=1;aspect=fixed;rounded=0;sketch=0;fontColor=#143642;strokeColor=#0F8B8D;fillColor=#FAE5C7;" vertex="1" parent="YE7-BCoIbk_1VqUBDQ1K-1">
          <mxGeometry x="505.63" y="210" width="20" height="20" as="geometry" />
        </mxCell>
        <mxCell id="YE7-BCoIbk_1VqUBDQ1K-16" value="&lt;b&gt;Log&lt;/b&gt; connection error" style="rounded=0;whiteSpace=wrap;html=1;sketch=0;fontColor=#143642;strokeColor=#0F8B8D;fillColor=#FAE5C7;" vertex="1" parent="YE7-BCoIbk_1VqUBDQ1K-1">
          <mxGeometry x="630.4300000000001" y="267" width="120.05" height="30" as="geometry" />
        </mxCell>
        <mxCell id="YE7-BCoIbk_1VqUBDQ1K-17" style="edgeStyle=orthogonalEdgeStyle;rounded=1;orthogonalLoop=1;jettySize=auto;html=1;exitX=0.5;exitY=1;exitDx=0;exitDy=0;entryX=0.5;entryY=0;entryDx=0;entryDy=0;strokeColor=#A8201A;" edge="1" parent="YE7-BCoIbk_1VqUBDQ1K-1" source="YE7-BCoIbk_1VqUBDQ1K-18" target="YE7-BCoIbk_1VqUBDQ1K-4">
          <mxGeometry relative="1" as="geometry" />
        </mxCell>
        <mxCell id="YE7-BCoIbk_1VqUBDQ1K-18" value="&lt;div&gt;&lt;b&gt;Create&lt;/b&gt; &lt;i&gt;tSend&lt;/i&gt;&lt;/div&gt;" style="rounded=0;whiteSpace=wrap;html=1;sketch=0;fontColor=#143642;strokeColor=#0F8B8D;fillColor=#FAE5C7;" vertex="1" parent="YE7-BCoIbk_1VqUBDQ1K-1">
          <mxGeometry x="440" y="510" width="150.25" height="40" as="geometry" />
        </mxCell>
        <mxCell id="YE7-BCoIbk_1VqUBDQ1K-19" style="edgeStyle=orthogonalEdgeStyle;rounded=1;orthogonalLoop=1;jettySize=auto;html=1;exitX=0.5;exitY=1;exitDx=0;exitDy=0;entryX=0.5;entryY=0;entryDx=0;entryDy=0;strokeColor=#A8201A;" edge="1" parent="YE7-BCoIbk_1VqUBDQ1K-1" target="YE7-BCoIbk_1VqUBDQ1K-18">
          <mxGeometry relative="1" as="geometry">
            <mxPoint x="515.755" y="490" as="sourcePoint" />
          </mxGeometry>
        </mxCell>
        <mxCell id="YE7-BCoIbk_1VqUBDQ1K-20" value="&lt;div&gt;&lt;b&gt;Create&lt;/b&gt; &lt;i&gt;tx_msgs&lt;/i&gt;&lt;/div&gt;&lt;div&gt;&lt;b&gt;Init &lt;/b&gt;&lt;i&gt;mutComms&lt;/i&gt;&lt;/div&gt;&lt;div&gt;&lt;b&gt;Init &lt;/b&gt;&lt;i&gt;mutSend&lt;/i&gt;&lt;/div&gt;&lt;div&gt;&lt;b&gt;Init&lt;/b&gt; &lt;i&gt;CondSend&lt;/i&gt;&lt;br&gt;&lt;/div&gt;" style="rounded=0;whiteSpace=wrap;html=1;sketch=0;fontColor=#143642;strokeColor=#0F8B8D;fillColor=#FAE5C7;" vertex="1" parent="YE7-BCoIbk_1VqUBDQ1K-1">
          <mxGeometry x="440.64" y="430" width="150.25" height="60" as="geometry" />
        </mxCell>
      </root>
    </mxGraphModel>
  </diagram>
  <diagram id="YN_9rrT5va-WdGQYN7Eg" name="Run">
    <mxGraphModel dx="771" dy="437" grid="1" gridSize="10" guides="1" tooltips="1" connect="1" arrows="1" fold="1" page="1" pageScale="1" pageWidth="850" pageHeight="1100" math="0" shadow="0">
      <root>
        <mxCell id="AVugyYPI0HYJmSwoT_p5-0" />
        <mxCell id="AVugyYPI0HYJmSwoT_p5-1" parent="AVugyYPI0HYJmSwoT_p5-0" />
        <mxCell id="AVugyYPI0HYJmSwoT_p5-2" style="edgeStyle=orthogonalEdgeStyle;curved=0;rounded=1;sketch=0;orthogonalLoop=1;jettySize=auto;html=1;exitX=0.5;exitY=1;exitDx=0;exitDy=0;entryX=0.5;entryY=0;entryDx=0;entryDy=0;fontColor=#143642;strokeColor=#A8201A;fillColor=#FAE5C7;" edge="1" parent="AVugyYPI0HYJmSwoT_p5-1" source="AVugyYPI0HYJmSwoT_p5-3">
          <mxGeometry relative="1" as="geometry">
            <mxPoint x="445.3699999999999" y="120" as="targetPoint" />
          </mxGeometry>
        </mxCell>
        <mxCell id="AVugyYPI0HYJmSwoT_p5-3" value="&lt;div&gt;Run&lt;span style=&quot;font-weight: normal&quot;&gt;&lt;/span&gt;&lt;br&gt;&lt;/div&gt;" style="ellipse;whiteSpace=wrap;html=1;fillColor=#FAE5C7;strokeColor=#0F8B8D;fontColor=#143642;fontStyle=1" vertex="1" parent="AVugyYPI0HYJmSwoT_p5-1">
          <mxGeometry x="382.37" y="30" width="125.5" height="50" as="geometry" />
        </mxCell>
        <mxCell id="AVugyYPI0HYJmSwoT_p5-4" value="" style="edgeStyle=orthogonalEdgeStyle;curved=0;rounded=1;sketch=0;orthogonalLoop=1;jettySize=auto;html=1;fontColor=#143642;strokeColor=#A8201A;fillColor=#FAE5C7;" edge="1" parent="AVugyYPI0HYJmSwoT_p5-1" source="AVugyYPI0HYJmSwoT_p5-5">
          <mxGeometry relative="1" as="geometry">
            <mxPoint x="445.25" y="179.9999999999999" as="targetPoint" />
          </mxGeometry>
        </mxCell>
        <mxCell id="AVugyYPI0HYJmSwoT_p5-5" value="&lt;b&gt;Create&lt;/b&gt; tSend" style="rounded=0;whiteSpace=wrap;html=1;sketch=0;fontColor=#143642;strokeColor=#0F8B8D;fillColor=#FAE5C7;" vertex="1" parent="AVugyYPI0HYJmSwoT_p5-1">
          <mxGeometry x="370.25" y="120" width="150" height="40" as="geometry" />
        </mxCell>
        <mxCell id="AVugyYPI0HYJmSwoT_p5-6" style="edgeStyle=orthogonalEdgeStyle;rounded=1;orthogonalLoop=1;jettySize=auto;html=1;exitX=0.5;exitY=1;exitDx=0;exitDy=0;entryX=0.5;entryY=0;entryDx=0;entryDy=0;strokeColor=#A8201A;" edge="1" parent="AVugyYPI0HYJmSwoT_p5-1" source="AVugyYPI0HYJmSwoT_p5-7" target="AVugyYPI0HYJmSwoT_p5-8">
          <mxGeometry relative="1" as="geometry" />
        </mxCell>
        <mxCell id="AVugyYPI0HYJmSwoT_p5-7" value="&lt;b&gt;Join&lt;/b&gt; tSend" style="rounded=0;whiteSpace=wrap;html=1;sketch=0;fontColor=#143642;strokeColor=#0F8B8D;fillColor=#FAE5C7;" vertex="1" parent="AVugyYPI0HYJmSwoT_p5-1">
          <mxGeometry x="370.25" y="180" width="150" height="40" as="geometry" />
        </mxCell>
        <mxCell id="AVugyYPI0HYJmSwoT_p5-8" value="End" style="ellipse;whiteSpace=wrap;html=1;fillColor=#FAE5C7;strokeColor=#0F8B8D;fontColor=#143642;fontStyle=1" vertex="1" parent="AVugyYPI0HYJmSwoT_p5-1">
          <mxGeometry x="416.12" y="260" width="58.25" height="40" as="geometry" />
        </mxCell>
      </root>
    </mxGraphModel>
  </diagram>
  <diagram id="6soCropAe5KGEDxksq2a" name="push">
    <mxGraphModel dx="1350" dy="764" grid="1" gridSize="10" guides="1" tooltips="1" connect="1" arrows="1" fold="1" page="1" pageScale="1" pageWidth="850" pageHeight="1100" math="0" shadow="0">
      <root>
        <mxCell id="PbfT_ldK-mM3IBFH0w1w-0" />
        <mxCell id="PbfT_ldK-mM3IBFH0w1w-1" parent="PbfT_ldK-mM3IBFH0w1w-0" />
        <mxCell id="PbfT_ldK-mM3IBFH0w1w-2" style="edgeStyle=orthogonalEdgeStyle;curved=0;rounded=1;sketch=0;orthogonalLoop=1;jettySize=auto;html=1;exitX=0.5;exitY=1;exitDx=0;exitDy=0;entryX=0.5;entryY=0;entryDx=0;entryDy=0;fontColor=#143642;strokeColor=#A8201A;fillColor=#FAE5C7;" parent="PbfT_ldK-mM3IBFH0w1w-1" source="PbfT_ldK-mM3IBFH0w1w-3" edge="1">
          <mxGeometry relative="1" as="geometry">
            <mxPoint x="445.26" y="120" as="targetPoint" />
          </mxGeometry>
        </mxCell>
        <mxCell id="PbfT_ldK-mM3IBFH0w1w-3" value="&lt;div&gt;Push&lt;/div&gt;&lt;div&gt;&lt;br&gt;&lt;/div&gt;&lt;div&gt;IN: &lt;i&gt;&lt;span style=&quot;font-weight: normal&quot;&gt;msg&lt;/span&gt;&lt;/i&gt;&lt;br&gt;&lt;/div&gt;" style="ellipse;whiteSpace=wrap;html=1;fillColor=#FAE5C7;strokeColor=#0F8B8D;fontColor=#143642;fontStyle=1" parent="PbfT_ldK-mM3IBFH0w1w-1" vertex="1">
          <mxGeometry x="382.26" y="30" width="125.5" height="50" as="geometry" />
        </mxCell>
        <mxCell id="PbfT_ldK-mM3IBFH0w1w-4" style="edgeStyle=orthogonalEdgeStyle;curved=0;rounded=1;sketch=0;orthogonalLoop=1;jettySize=auto;html=1;exitX=0.5;exitY=1;exitDx=0;exitDy=0;entryX=0.5;entryY=0;entryDx=0;entryDy=0;fontColor=#143642;strokeColor=#A8201A;fillColor=#FAE5C7;" parent="PbfT_ldK-mM3IBFH0w1w-1" source="PbfT_ldK-mM3IBFH0w1w-5" target="PbfT_ldK-mM3IBFH0w1w-9" edge="1">
          <mxGeometry relative="1" as="geometry" />
        </mxCell>
        <mxCell id="PbfT_ldK-mM3IBFH0w1w-5" value="&lt;b&gt;Lock&lt;/b&gt; &lt;i&gt;mutSend&lt;/i&gt;" style="rounded=0;whiteSpace=wrap;html=1;sketch=0;fontColor=#143642;strokeColor=#0F8B8D;fillColor=#FAE5C7;" parent="PbfT_ldK-mM3IBFH0w1w-1" vertex="1">
          <mxGeometry x="370.26" y="120" width="150" height="40" as="geometry" />
        </mxCell>
        <mxCell id="PbfT_ldK-mM3IBFH0w1w-6" style="edgeStyle=orthogonalEdgeStyle;curved=0;rounded=1;sketch=0;orthogonalLoop=1;jettySize=auto;html=1;exitX=0.5;exitY=1;exitDx=0;exitDy=0;entryX=0.5;entryY=0;entryDx=0;entryDy=0;fontColor=#143642;strokeColor=#A8201A;fillColor=#FAE5C7;" parent="PbfT_ldK-mM3IBFH0w1w-1" source="PbfT_ldK-mM3IBFH0w1w-7" target="PbfT_ldK-mM3IBFH0w1w-12" edge="1">
          <mxGeometry relative="1" as="geometry" />
        </mxCell>
        <mxCell id="PbfT_ldK-mM3IBFH0w1w-7" value="&lt;b&gt;Unlock&lt;/b&gt; &lt;i&gt;mutSend&lt;/i&gt;" style="rounded=0;whiteSpace=wrap;html=1;sketch=0;fontColor=#143642;strokeColor=#0F8B8D;fillColor=#FAE5C7;" parent="PbfT_ldK-mM3IBFH0w1w-1" vertex="1">
          <mxGeometry x="370" y="300" width="150" height="40" as="geometry" />
        </mxCell>
        <mxCell id="PbfT_ldK-mM3IBFH0w1w-8" style="edgeStyle=orthogonalEdgeStyle;curved=0;rounded=1;sketch=0;orthogonalLoop=1;jettySize=auto;html=1;exitX=0.5;exitY=1;exitDx=0;exitDy=0;fontColor=#143642;strokeColor=#A8201A;fillColor=#FAE5C7;" parent="PbfT_ldK-mM3IBFH0w1w-1" source="PbfT_ldK-mM3IBFH0w1w-9" target="PbfT_ldK-mM3IBFH0w1w-11" edge="1">
          <mxGeometry relative="1" as="geometry" />
        </mxCell>
        <mxCell id="PbfT_ldK-mM3IBFH0w1w-9" value="&lt;b&gt;Push &lt;/b&gt;&lt;i&gt;msg&lt;/i&gt; to &lt;i&gt;tx_msgs&lt;/i&gt;" style="rounded=0;whiteSpace=wrap;html=1;sketch=0;fontColor=#143642;strokeColor=#0F8B8D;fillColor=#FAE5C7;" parent="PbfT_ldK-mM3IBFH0w1w-1" vertex="1">
          <mxGeometry x="370.01" y="180" width="150.25" height="40" as="geometry" />
        </mxCell>
        <mxCell id="PbfT_ldK-mM3IBFH0w1w-10" style="edgeStyle=orthogonalEdgeStyle;curved=0;rounded=1;sketch=0;orthogonalLoop=1;jettySize=auto;html=1;exitX=0.5;exitY=1;exitDx=0;exitDy=0;fontColor=#143642;strokeColor=#A8201A;fillColor=#FAE5C7;" parent="PbfT_ldK-mM3IBFH0w1w-1" source="PbfT_ldK-mM3IBFH0w1w-11" target="PbfT_ldK-mM3IBFH0w1w-7" edge="1">
          <mxGeometry relative="1" as="geometry" />
        </mxCell>
        <mxCell id="PbfT_ldK-mM3IBFH0w1w-11" value="&lt;b&gt;Signal&lt;/b&gt; &lt;i&gt;condSend&lt;/i&gt;" style="rounded=0;whiteSpace=wrap;html=1;sketch=0;fontColor=#143642;strokeColor=#0F8B8D;fillColor=#FAE5C7;" parent="PbfT_ldK-mM3IBFH0w1w-1" vertex="1">
          <mxGeometry x="370.01" y="240" width="150" height="40" as="geometry" />
        </mxCell>
        <mxCell id="PbfT_ldK-mM3IBFH0w1w-12" value="End" style="ellipse;whiteSpace=wrap;html=1;fillColor=#FAE5C7;strokeColor=#0F8B8D;fontColor=#143642;fontStyle=1" parent="PbfT_ldK-mM3IBFH0w1w-1" vertex="1">
          <mxGeometry x="415.88" y="370" width="58.25" height="40" as="geometry" />
        </mxCell>
      </root>
    </mxGraphModel>
  </diagram>
  <diagram id="0hnrLzMrPIrvC21Ddi-R" name="send">
    <mxGraphModel dx="1350" dy="764" grid="1" gridSize="10" guides="1" tooltips="1" connect="1" arrows="1" fold="1" page="1" pageScale="1" pageWidth="850" pageHeight="1100" math="0" shadow="0">
      <root>
        <mxCell id="DOHKxH0JR9qbzWTHp2MG-0" />
        <mxCell id="DOHKxH0JR9qbzWTHp2MG-1" parent="DOHKxH0JR9qbzWTHp2MG-0" />
        <mxCell id="DOHKxH0JR9qbzWTHp2MG-2" style="edgeStyle=orthogonalEdgeStyle;curved=0;rounded=1;sketch=0;orthogonalLoop=1;jettySize=auto;html=1;exitX=0.5;exitY=1;exitDx=0;exitDy=0;entryX=0.5;entryY=0;entryDx=0;entryDy=0;fontColor=#143642;strokeColor=#A8201A;fillColor=#FAE5C7;" parent="DOHKxH0JR9qbzWTHp2MG-1" source="DOHKxH0JR9qbzWTHp2MG-3" target="DOHKxH0JR9qbzWTHp2MG-5" edge="1">
          <mxGeometry relative="1" as="geometry">
            <mxPoint x="434.75" y="140" as="targetPoint" />
          </mxGeometry>
        </mxCell>
        <mxCell id="DOHKxH0JR9qbzWTHp2MG-3" value="tSend" style="ellipse;whiteSpace=wrap;html=1;fillColor=#FAE5C7;strokeColor=#0F8B8D;fontColor=#143642;fontStyle=1" parent="DOHKxH0JR9qbzWTHp2MG-1" vertex="1">
          <mxGeometry x="372" y="70" width="125.5" height="50" as="geometry" />
        </mxCell>
        <mxCell id="DOHKxH0JR9qbzWTHp2MG-4" style="edgeStyle=orthogonalEdgeStyle;curved=0;rounded=1;sketch=0;orthogonalLoop=1;jettySize=auto;html=1;exitX=0.5;exitY=1;exitDx=0;exitDy=0;entryX=0.5;entryY=0;entryDx=0;entryDy=0;fontColor=#143642;strokeColor=#A8201A;fillColor=#FAE5C7;" parent="DOHKxH0JR9qbzWTHp2MG-1" source="DOHKxH0JR9qbzWTHp2MG-5" target="DOHKxH0JR9qbzWTHp2MG-16" edge="1">
          <mxGeometry relative="1" as="geometry" />
        </mxCell>
        <mxCell id="DOHKxH0JR9qbzWTHp2MG-5" value="&lt;b&gt;Lock&lt;/b&gt; &lt;i&gt;mutSend&lt;/i&gt;" style="rounded=0;whiteSpace=wrap;html=1;sketch=0;fontColor=#143642;strokeColor=#0F8B8D;fillColor=#FAE5C7;" parent="DOHKxH0JR9qbzWTHp2MG-1" vertex="1">
          <mxGeometry x="360" y="160" width="150" height="40" as="geometry" />
        </mxCell>
        <mxCell id="DOHKxH0JR9qbzWTHp2MG-6" value="condSend" style="edgeStyle=orthogonalEdgeStyle;curved=0;rounded=1;sketch=0;orthogonalLoop=1;jettySize=auto;html=1;fontColor=#143642;strokeColor=#A8201A;fillColor=#FAE5C7;entryX=1;entryY=0.5;entryDx=0;entryDy=0;fontStyle=2" parent="DOHKxH0JR9qbzWTHp2MG-1" source="DOHKxH0JR9qbzWTHp2MG-7" target="DOHKxH0JR9qbzWTHp2MG-18" edge="1">
          <mxGeometry x="-0.6671" relative="1" as="geometry">
            <mxPoint x="434.5000000000001" y="399.9999999999999" as="targetPoint" />
            <Array as="points">
              <mxPoint x="535" y="360" />
            </Array>
            <mxPoint as="offset" />
          </mxGeometry>
        </mxCell>
        <mxCell id="DOHKxH0JR9qbzWTHp2MG-7" value="&lt;b&gt;Wait&lt;/b&gt; for &lt;i&gt;condSend&lt;/i&gt;" style="rounded=0;whiteSpace=wrap;html=1;sketch=0;fontColor=#143642;strokeColor=#0F8B8D;fillColor=#FAE5C7;" parent="DOHKxH0JR9qbzWTHp2MG-1" vertex="1">
          <mxGeometry x="460" y="300" width="150" height="40" as="geometry" />
        </mxCell>
        <mxCell id="DOHKxH0JR9qbzWTHp2MG-8" value="" style="edgeStyle=orthogonalEdgeStyle;rounded=1;sketch=0;orthogonalLoop=1;jettySize=auto;html=1;fontColor=#143642;strokeColor=#A8201A;fillColor=#FAE5C7;" parent="DOHKxH0JR9qbzWTHp2MG-1" source="DOHKxH0JR9qbzWTHp2MG-9" target="DOHKxH0JR9qbzWTHp2MG-11" edge="1">
          <mxGeometry relative="1" as="geometry" />
        </mxCell>
        <mxCell id="DOHKxH0JR9qbzWTHp2MG-9" value="&lt;b&gt;LoraSend&lt;/b&gt;(&lt;i&gt;msg&lt;/i&gt;)" style="shape=process;whiteSpace=wrap;html=1;backgroundOutline=1;rounded=0;sketch=0;fontColor=#143642;strokeColor=#0F8B8D;fillColor=#FAE5C7;" parent="DOHKxH0JR9qbzWTHp2MG-1" vertex="1">
          <mxGeometry x="360.38" y="580" width="150" height="40" as="geometry" />
        </mxCell>
        <mxCell id="DOHKxH0JR9qbzWTHp2MG-10" style="edgeStyle=orthogonalEdgeStyle;rounded=1;orthogonalLoop=1;jettySize=auto;html=1;exitX=0.5;exitY=1;exitDx=0;exitDy=0;strokeColor=#A8201A;" parent="DOHKxH0JR9qbzWTHp2MG-1" source="DOHKxH0JR9qbzWTHp2MG-11" target="DOHKxH0JR9qbzWTHp2MG-27" edge="1">
          <mxGeometry relative="1" as="geometry" />
        </mxCell>
        <mxCell id="DOHKxH0JR9qbzWTHp2MG-11" value="&lt;b&gt;Unlock&lt;/b&gt; &lt;i&gt;mutComms&lt;/i&gt;" style="rounded=0;whiteSpace=wrap;html=1;sketch=0;fontColor=#143642;strokeColor=#0F8B8D;fillColor=#FAE5C7;" parent="DOHKxH0JR9qbzWTHp2MG-1" vertex="1">
          <mxGeometry x="360.76" y="640" width="150" height="40" as="geometry" />
        </mxCell>
        <mxCell id="DOHKxH0JR9qbzWTHp2MG-12" style="edgeStyle=orthogonalEdgeStyle;curved=0;rounded=1;sketch=0;orthogonalLoop=1;jettySize=auto;html=1;exitX=0;exitY=0.5;exitDx=0;exitDy=0;fontColor=#143642;strokeColor=#A8201A;fillColor=#FAE5C7;entryX=0;entryY=0.5;entryDx=0;entryDy=0;" parent="DOHKxH0JR9qbzWTHp2MG-1" source="DOHKxH0JR9qbzWTHp2MG-16" target="DOHKxH0JR9qbzWTHp2MG-18" edge="1">
          <mxGeometry relative="1" as="geometry">
            <mxPoint x="430" y="389.9999999999999" as="targetPoint" />
            <Array as="points">
              <mxPoint x="340" y="260" />
              <mxPoint x="340" y="360" />
            </Array>
          </mxGeometry>
        </mxCell>
        <mxCell id="DOHKxH0JR9qbzWTHp2MG-13" value="No" style="edgeLabel;html=1;align=center;verticalAlign=middle;resizable=0;points=[];fontColor=#143642;" parent="DOHKxH0JR9qbzWTHp2MG-12" vertex="1" connectable="0">
          <mxGeometry x="-0.8786" relative="1" as="geometry">
            <mxPoint as="offset" />
          </mxGeometry>
        </mxCell>
        <mxCell id="DOHKxH0JR9qbzWTHp2MG-14" style="edgeStyle=orthogonalEdgeStyle;curved=0;rounded=1;sketch=0;orthogonalLoop=1;jettySize=auto;html=1;exitX=1;exitY=0.5;exitDx=0;exitDy=0;entryX=0.5;entryY=0;entryDx=0;entryDy=0;fontColor=#143642;strokeColor=#A8201A;fillColor=#FAE5C7;" parent="DOHKxH0JR9qbzWTHp2MG-1" source="DOHKxH0JR9qbzWTHp2MG-16" target="DOHKxH0JR9qbzWTHp2MG-7" edge="1">
          <mxGeometry relative="1" as="geometry" />
        </mxCell>
        <mxCell id="DOHKxH0JR9qbzWTHp2MG-15" value="Yes" style="edgeLabel;html=1;align=center;verticalAlign=middle;resizable=0;points=[];fontColor=#143642;" parent="DOHKxH0JR9qbzWTHp2MG-14" vertex="1" connectable="0">
          <mxGeometry x="-0.7996" y="-1" relative="1" as="geometry">
            <mxPoint as="offset" />
          </mxGeometry>
        </mxCell>
        <mxCell id="DOHKxH0JR9qbzWTHp2MG-16" value="Is &lt;i&gt;tx_msgs&lt;/i&gt; empty?" style="rhombus;whiteSpace=wrap;html=1;rounded=0;sketch=0;fontColor=#143642;strokeColor=#0F8B8D;fillColor=#FAE5C7;" parent="DOHKxH0JR9qbzWTHp2MG-1" vertex="1">
          <mxGeometry x="392" y="220" width="85.5" height="80" as="geometry" />
        </mxCell>
        <mxCell id="DOHKxH0JR9qbzWTHp2MG-17" style="edgeStyle=orthogonalEdgeStyle;curved=0;rounded=1;sketch=0;orthogonalLoop=1;jettySize=auto;html=1;exitX=0.5;exitY=1;exitDx=0;exitDy=0;entryX=0.5;entryY=0;entryDx=0;entryDy=0;fontColor=#143642;strokeColor=#A8201A;fillColor=#FAE5C7;" parent="DOHKxH0JR9qbzWTHp2MG-1" source="DOHKxH0JR9qbzWTHp2MG-18" edge="1">
          <mxGeometry relative="1" as="geometry">
            <mxPoint x="434.6199999999999" y="400" as="targetPoint" />
          </mxGeometry>
        </mxCell>
        <mxCell id="DOHKxH0JR9qbzWTHp2MG-18" value="" style="ellipse;whiteSpace=wrap;html=1;aspect=fixed;rounded=0;sketch=0;fontColor=#143642;strokeColor=#0F8B8D;fillColor=#FAE5C7;" parent="DOHKxH0JR9qbzWTHp2MG-1" vertex="1">
          <mxGeometry x="425" y="350" width="20" height="20" as="geometry" />
        </mxCell>
        <mxCell id="DOHKxH0JR9qbzWTHp2MG-19" value="Continue to send queued messages" style="shape=note;whiteSpace=wrap;html=1;backgroundOutline=1;darkOpacity=0.05;rounded=0;sketch=0;fontColor=#143642;strokeColor=#0F8B8D;fillColor=#FAE5C7;size=15;fontSize=11;" parent="DOHKxH0JR9qbzWTHp2MG-1" vertex="1">
          <mxGeometry x="210" y="240" width="100" height="50" as="geometry" />
        </mxCell>
        <mxCell id="DOHKxH0JR9qbzWTHp2MG-20" value="" style="endArrow=none;dashed=1;html=1;rounded=1;sketch=0;fontColor=#143642;strokeColor=#A8201A;fillColor=#FAE5C7;curved=0;exitX=0;exitY=0;exitDx=100;exitDy=15;exitPerimeter=0;" parent="DOHKxH0JR9qbzWTHp2MG-1" source="DOHKxH0JR9qbzWTHp2MG-19" edge="1">
          <mxGeometry width="50" height="50" relative="1" as="geometry">
            <mxPoint x="260" y="350" as="sourcePoint" />
            <mxPoint x="340" y="270" as="targetPoint" />
          </mxGeometry>
        </mxCell>
        <mxCell id="DOHKxH0JR9qbzWTHp2MG-21" style="edgeStyle=orthogonalEdgeStyle;rounded=1;orthogonalLoop=1;jettySize=auto;html=1;exitX=0.5;exitY=1;exitDx=0;exitDy=0;entryX=0.5;entryY=0;entryDx=0;entryDy=0;strokeColor=#A8201A;" parent="DOHKxH0JR9qbzWTHp2MG-1" source="DOHKxH0JR9qbzWTHp2MG-22" target="DOHKxH0JR9qbzWTHp2MG-26" edge="1">
          <mxGeometry relative="1" as="geometry" />
        </mxCell>
        <mxCell id="DOHKxH0JR9qbzWTHp2MG-22" value="&lt;b&gt;Pop &lt;/b&gt;&lt;i&gt;msg &lt;/i&gt;from &lt;i&gt;tx_msgs&lt;/i&gt;" style="rounded=0;whiteSpace=wrap;html=1;sketch=0;fontColor=#143642;strokeColor=#0F8B8D;fillColor=#FAE5C7;" parent="DOHKxH0JR9qbzWTHp2MG-1" vertex="1">
          <mxGeometry x="360" y="400" width="150" height="40" as="geometry" />
        </mxCell>
        <mxCell id="DOHKxH0JR9qbzWTHp2MG-23" style="edgeStyle=orthogonalEdgeStyle;rounded=1;orthogonalLoop=1;jettySize=auto;html=1;exitX=0.5;exitY=1;exitDx=0;exitDy=0;entryX=0.5;entryY=0;entryDx=0;entryDy=0;strokeColor=#A8201A;" parent="DOHKxH0JR9qbzWTHp2MG-1" source="DOHKxH0JR9qbzWTHp2MG-24" target="DOHKxH0JR9qbzWTHp2MG-9" edge="1">
          <mxGeometry relative="1" as="geometry" />
        </mxCell>
        <mxCell id="DOHKxH0JR9qbzWTHp2MG-24" value="&lt;b&gt;Lock&lt;/b&gt; &lt;i&gt;mutComms&lt;/i&gt;" style="rounded=0;whiteSpace=wrap;html=1;sketch=0;fontColor=#143642;strokeColor=#0F8B8D;fillColor=#FAE5C7;" parent="DOHKxH0JR9qbzWTHp2MG-1" vertex="1">
          <mxGeometry x="360.38" y="520" width="150" height="40" as="geometry" />
        </mxCell>
        <mxCell id="DOHKxH0JR9qbzWTHp2MG-25" style="edgeStyle=orthogonalEdgeStyle;rounded=1;orthogonalLoop=1;jettySize=auto;html=1;exitX=0.5;exitY=1;exitDx=0;exitDy=0;entryX=0.5;entryY=0;entryDx=0;entryDy=0;strokeColor=#A8201A;" parent="DOHKxH0JR9qbzWTHp2MG-1" source="DOHKxH0JR9qbzWTHp2MG-26" target="DOHKxH0JR9qbzWTHp2MG-24" edge="1">
          <mxGeometry relative="1" as="geometry" />
        </mxCell>
        <mxCell id="DOHKxH0JR9qbzWTHp2MG-26" value="&lt;b&gt;Unlock&lt;/b&gt; &lt;i&gt;mutSend&lt;/i&gt;" style="rounded=0;whiteSpace=wrap;html=1;sketch=0;fontColor=#143642;strokeColor=#0F8B8D;fillColor=#FAE5C7;" parent="DOHKxH0JR9qbzWTHp2MG-1" vertex="1">
          <mxGeometry x="360.76" y="460" width="150" height="40" as="geometry" />
        </mxCell>
        <mxCell id="DOHKxH0JR9qbzWTHp2MG-27" value="End" style="ellipse;whiteSpace=wrap;html=1;fillColor=#FAE5C7;strokeColor=#0F8B8D;fontColor=#143642;fontStyle=1" parent="DOHKxH0JR9qbzWTHp2MG-1" vertex="1">
          <mxGeometry x="406.64" y="710" width="58.25" height="40" as="geometry" />
        </mxCell>
      </root>
    </mxGraphModel>
  </diagram>
  <diagram id="gWrtyDDD40syY5j1oNSI" name="recv">
    <mxGraphModel dx="1125" dy="637" grid="1" gridSize="10" guides="1" tooltips="1" connect="1" arrows="1" fold="1" page="1" pageScale="1" pageWidth="850" pageHeight="1100" math="0" shadow="0">
      <root>
        <mxCell id="RDyHwdaBcesgnNNwkRJs-0" />
        <mxCell id="RDyHwdaBcesgnNNwkRJs-1" parent="RDyHwdaBcesgnNNwkRJs-0" />
        <mxCell id="RDyHwdaBcesgnNNwkRJs-2" style="edgeStyle=orthogonalEdgeStyle;curved=0;rounded=1;sketch=0;orthogonalLoop=1;jettySize=auto;html=1;exitX=0.5;exitY=1;exitDx=0;exitDy=0;entryX=0.5;entryY=0;entryDx=0;entryDy=0;fontColor=#143642;strokeColor=#A8201A;fillColor=#FAE5C7;" parent="RDyHwdaBcesgnNNwkRJs-1" source="RDyHwdaBcesgnNNwkRJs-3" edge="1">
          <mxGeometry relative="1" as="geometry">
            <mxPoint x="435.37" y="120" as="targetPoint" />
          </mxGeometry>
        </mxCell>
        <mxCell id="RDyHwdaBcesgnNNwkRJs-3" value="&lt;div&gt;Recv&lt;/div&gt;&lt;div&gt;&lt;br&gt;&lt;/div&gt;&lt;div&gt;OUT: &lt;span style=&quot;font-weight: normal&quot;&gt;&lt;i&gt;message&lt;/i&gt;&lt;/span&gt;&lt;br&gt;&lt;/div&gt;" style="ellipse;whiteSpace=wrap;html=1;fillColor=#FAE5C7;strokeColor=#0F8B8D;fontColor=#143642;fontStyle=1" parent="RDyHwdaBcesgnNNwkRJs-1" vertex="1">
          <mxGeometry x="372.37" y="30" width="125.5" height="50" as="geometry" />
        </mxCell>
        <mxCell id="RDyHwdaBcesgnNNwkRJs-4" value="" style="edgeStyle=orthogonalEdgeStyle;curved=0;rounded=1;sketch=0;orthogonalLoop=1;jettySize=auto;html=1;fontColor=#143642;strokeColor=#A8201A;fillColor=#FAE5C7;" parent="RDyHwdaBcesgnNNwkRJs-1" source="RDyHwdaBcesgnNNwkRJs-5" edge="1">
          <mxGeometry relative="1" as="geometry">
            <mxPoint x="435.2499999999999" y="179.9999999999999" as="targetPoint" />
          </mxGeometry>
        </mxCell>
        <mxCell id="RDyHwdaBcesgnNNwkRJs-5" value="&lt;div&gt;&lt;b&gt;Lock&lt;/b&gt; &lt;i&gt;mutComms&lt;/i&gt;&lt;/div&gt;" style="rounded=0;whiteSpace=wrap;html=1;sketch=0;fontColor=#143642;strokeColor=#0F8B8D;fillColor=#FAE5C7;" parent="RDyHwdaBcesgnNNwkRJs-1" vertex="1">
          <mxGeometry x="360.25" y="120" width="150" height="40" as="geometry" />
        </mxCell>
        <mxCell id="RDyHwdaBcesgnNNwkRJs-6" value="Returns &lt;i&gt;message&lt;/i&gt;" style="edgeStyle=orthogonalEdgeStyle;curved=0;rounded=1;sketch=0;orthogonalLoop=1;jettySize=auto;html=1;fontColor=#143642;strokeColor=#A8201A;fillColor=#FAE5C7;entryX=0.5;entryY=0;entryDx=0;entryDy=0;" parent="RDyHwdaBcesgnNNwkRJs-1" target="RDyHwdaBcesgnNNwkRJs-8" edge="1">
          <mxGeometry relative="1" as="geometry">
            <mxPoint x="435.2499999999999" y="220" as="sourcePoint" />
            <mxPoint x="434.7500000000001" y="269.9999999999999" as="targetPoint" />
          </mxGeometry>
        </mxCell>
        <mxCell id="RDyHwdaBcesgnNNwkRJs-7" style="edgeStyle=orthogonalEdgeStyle;rounded=1;orthogonalLoop=1;jettySize=auto;html=1;exitX=0.5;exitY=1;exitDx=0;exitDy=0;entryX=0.5;entryY=0;entryDx=0;entryDy=0;strokeColor=#A8201A;" parent="RDyHwdaBcesgnNNwkRJs-1" source="RDyHwdaBcesgnNNwkRJs-8" target="RDyHwdaBcesgnNNwkRJs-10" edge="1">
          <mxGeometry relative="1" as="geometry" />
        </mxCell>
        <mxCell id="RDyHwdaBcesgnNNwkRJs-8" value="&lt;b&gt;Unlock&lt;/b&gt; &lt;i&gt;mutComms&lt;/i&gt;" style="rounded=0;whiteSpace=wrap;html=1;sketch=0;fontColor=#143642;strokeColor=#0F8B8D;fillColor=#FAE5C7;" parent="RDyHwdaBcesgnNNwkRJs-1" vertex="1">
          <mxGeometry x="360" y="270" width="150" height="40" as="geometry" />
        </mxCell>
        <mxCell id="RDyHwdaBcesgnNNwkRJs-9" value="&lt;b&gt;LoraReceive()&lt;/b&gt;" style="shape=process;whiteSpace=wrap;html=1;backgroundOutline=1;rounded=0;sketch=0;fontColor=#143642;strokeColor=#0F8B8D;fillColor=#FAE5C7;" parent="RDyHwdaBcesgnNNwkRJs-1" vertex="1">
          <mxGeometry x="360.25" y="180" width="150" height="40" as="geometry" />
        </mxCell>
        <mxCell id="RDyHwdaBcesgnNNwkRJs-10" value="End" style="ellipse;whiteSpace=wrap;html=1;fillColor=#FAE5C7;strokeColor=#0F8B8D;fontColor=#143642;fontStyle=1" parent="RDyHwdaBcesgnNNwkRJs-1" vertex="1">
          <mxGeometry x="405.87" y="330" width="58.25" height="40" as="geometry" />
        </mxCell>
      </root>
    </mxGraphModel>
  </diagram>
</mxfile>
